<svg id="Layer_1" data-name="Layer 1" xmlns="http://www.w3.org/2000/svg" viewBox="0 0 733 35.6"><title>separator</title><path d="M284.72-19.32q0-16.29,0-32.59c-.58.54-.45.27-2.55,1.11-18.05,7.25-48.19,10-69.83,13.42a391.17,391.17,0,0,1-46,4.81c-25.57,1-49.93-2-73.81-6.66-18.63-3.65-37.1-7.54-55.92-10.92A295.67,295.67,0,0,0-48-53.21c-21.27,2.32-41.78,6.09-62.58,9.3-19.57,3-39.38,5.45-59.78,5.87-15.32.32-30.54-.76-45.73-1.76-25.91-1.71-51.42-4.94-77.55-5.88-20.48-.73-40.95-.77-61.32.35-29.34,1.61-58.13,5.07-86.86,8.59-2.61.32-5.28.62-6.48,2.18q0,7.62,0,15.24Z" transform="translate(448.28 54.92)" style="fill:#fff"/></svg>