<svg id="Layer_1" data-name="Layer 1" xmlns="http://www.w3.org/2000/svg" viewBox="0 0 148.23 150.49"><title>logo</title><line x1="19.86" y1="1.23" x2="74.29" y2="108.38" style="fill:#fff"/><path d="M-282.21,206.57-226,312.82a2,2,0,0,1-.83,2.7,2,2,0,0,1-2.71-.83s0,0,0-.06Z" transform="translate(302.07 -205.34)" style="fill:#fff"/><path d="M-302.07,206.57c6.13,10.27,12.06,20.64,18,31l16.16,31.93,32.35,63.85h-3.58l31.84-63.84,15.92-31.93c5.85-10.37,11.68-20.74,17.71-31-4.59,11-9.37,21.9-14.13,32.82l-15.92,31.92-31.84,63.85h-3.57l-32.35-63.85-16.19-31.91C-292.56,228.5-297.42,217.59-302.07,206.57Z" transform="translate(302.07 -205.34)" style="fill:#fff"/><line x1="148.23" y1="1.23" x2="74.29" y2="150.49" style="fill:#fff"/><path d="M-153.84,206.57c-2.33,6.59-4.88,13.07-7.43,19.56l-9.26,18.64L-189,282.09-207.5,319.4l-9.25,18.66c-3.62,5.95-7.23,11.91-11,17.77,2.36-6.57,4.91-13.06,7.45-19.54l9.24-18.66,18.49-37.32L-174.12,243l9.23-18.67C-161.27,218.38-157.66,212.42-153.84,206.57Z" transform="translate(302.07 -205.34)" style="fill:#fff"/><line x1="64.19" y1="1.73" x2="64.19" y2="89" style="fill:#fff"/><path d="M-237.88,207.07l2,87.28c0,1.1-.31,1.5-1.42,1.53s-2.51-2.62-2.53-3.73" transform="translate(302.07 -205.34)" style="fill:#fff"/><line x1="85.01" x2="85.01" y2="87.27" style="fill:#fff"/><path d="M-217.06,205.34l2,87.28a2,2,0,0,1-1.95,2,2,2,0,0,1-2.05-2v-.09Z" transform="translate(302.07 -205.34)" style="fill:#fff"/></svg>